<?xml version="1.0" encoding="utf-8"?>
<!-- Generator: Adobe Illustrator 25.0.1, SVG Export Plug-In . SVG Version: 6.00 Build 0)  -->
<svg version="1.1" xmlns="http://www.w3.org/2000/svg" xmlns:xlink="http://www.w3.org/1999/xlink" x="0px" y="0px"
	 viewBox="0 0 4053.5 4053.5" style="enable-background:new 0 0 4053.5 4053.5;" xml:space="preserve">
<style type="text/css">
	.st0{opacity:0.5;}
	.st1{fill:#FFFFFF;}
	.st2{fill:none;stroke:#000000;stroke-width:40;stroke-miterlimit:10;}
	.st3{fill:#253F8C;}
	.st4{fill:#D3BD37;}
	.st5{fill:#D31216;}
</style>
<g class="st0">
	<g id="Layer_1">
	</g>
</g>
<g>
	<g>
		<circle class="st1" cx="2025.7" cy="2032.5" r="2026.6"/>
		<path class="st2" d="M1097.2,2136.5c0,0-18.1-956.6,36.3-961.2"/>
		<line class="st2" x1="2711.3" y1="685.7" x2="2697.7" y2="2095.7"/>
		<path class="st2" d="M2493.7,1597c0,0-1083.6,90.7-1156.1,136"/>
		<path class="st2" d="M1351.1,1320.4c0,0,1165.2-312.8,1169.7-267.5"/>
		<path class="st2" d="M1342,1678.6l126.9-272l167.8,185.9l208.6-290.2l149.6,235.8l176.8-299.2l167.8,244.8
			c0,0,163.2-394.4,190.4-385.4"/>

			<image style="overflow:visible;" width="306" height="88" xlink:href="453C8EAF.jpg"  transform="matrix(9.2196 0 0 9.0677 494.2152 2304.2739)">
		</image>

			<image style="overflow:visible;" width="268" height="71" xlink:href="453C8EAD.jpg"  transform="matrix(3.6076 0 0 3.4802 2336.1018 2206.7957)">
		</image>
		<g>
			<g>
				<path class="st1" d="M1784.1,2016.6c3.2,0,3.2-5,0-5C1780.9,2011.6,1780.9,2016.6,1784.1,2016.6L1784.1,2016.6z"/>
			</g>
		</g>
		<circle class="st3" cx="999.2" cy="2422.7" r="34"/>
		<circle class="st4" cx="907.9" cy="2422.7" r="34"/>
		<circle class="st5" cx="1096.1" cy="2423.9" r="34"/>
		<path class="st2" d="M557.7,2830.2c0,0-122.4-979.3-68-1029.2c0,0,580.3-199.5,607.5-149.6c0,0,9.1-453.4,54.4-503.3
			c0,0,1518.8-489.7,1541.5-462.5c0,0,784.4,362.7,1024.7,562.2l-195,1700.2"/>
		<path class="st1" d="M887.8,2395.7c0,0-30.2,23.8-1.3,53.6l-34.4,0.4c0,0,27.6-34,2.6-54H887.8z"/>
	</g>
</g>
</svg>
